<svg width="20" height="21" viewBox="0 0 20 21" fill="none" xmlns="http://www.w3.org/2000/svg">
<g clip-path="url(#clip0_963_5643)">
<path d="M18.5195 0.960693H1.47656C0.660156 0.960693 0 1.60522 0 2.4021V19.5154C0 20.3123 0.660156 20.9607 1.47656 20.9607H18.5195C19.3359 20.9607 20 20.3123 20 19.5193V2.4021C20 1.60522 19.3359 0.960693 18.5195 0.960693ZM5.93359 18.0037H2.96484V8.45679H5.93359V18.0037ZM4.44922 7.15601C3.49609 7.15601 2.72656 6.38647 2.72656 5.43726C2.72656 4.48804 3.49609 3.71851 4.44922 3.71851C5.39844 3.71851 6.16797 4.48804 6.16797 5.43726C6.16797 6.38257 5.39844 7.15601 4.44922 7.15601ZM17.043 18.0037H14.0781V13.363C14.0781 12.2576 14.0586 10.8318 12.5352 10.8318C10.9922 10.8318 10.7578 12.0388 10.7578 13.2849V18.0037H7.79688V8.45679H10.6406V9.76147H10.6797C11.0742 9.01147 12.043 8.21851 13.4844 8.21851C16.4883 8.21851 17.043 10.1951 17.043 12.7654V18.0037Z" fill="white"/>
</g>
<defs>
<clipPath id="clip0_963_5643">
<rect width="20" height="20" fill="white" transform="translate(0 0.960693)"/>
</clipPath>
</defs>
</svg>
