<svg width="20" height="21" viewBox="0 0 20 21" fill="none" xmlns="http://www.w3.org/2000/svg">
<g clip-path="url(#clip0_963_5644)">
<path d="M10 2.76147C12.6719 2.76147 12.9883 2.77319 14.0391 2.82007C15.0156 2.86304 15.543 3.0271 15.8945 3.16382C16.3594 3.34351 16.6953 3.56226 17.043 3.90991C17.3945 4.26147 17.6094 4.59351 17.7891 5.05835C17.9258 5.40991 18.0898 5.94116 18.1328 6.91382C18.1797 7.96851 18.1914 8.28491 18.1914 10.9529C18.1914 13.6248 18.1797 13.9412 18.1328 14.9919C18.0898 15.9685 17.9258 16.4959 17.7891 16.8474C17.6094 17.3123 17.3906 17.6482 17.043 17.9959C16.6914 18.3474 16.3594 18.5623 15.8945 18.7419C15.543 18.8787 15.0117 19.0427 14.0391 19.0857C12.9844 19.1326 12.668 19.1443 10 19.1443C7.32813 19.1443 7.01172 19.1326 5.96094 19.0857C4.98438 19.0427 4.45703 18.8787 4.10547 18.7419C3.64063 18.5623 3.30469 18.3435 2.95703 17.9959C2.60547 17.6443 2.39063 17.3123 2.21094 16.8474C2.07422 16.4959 1.91016 15.9646 1.86719 14.9919C1.82031 13.9373 1.80859 13.6209 1.80859 10.9529C1.80859 8.28101 1.82031 7.9646 1.86719 6.91382C1.91016 5.93726 2.07422 5.40991 2.21094 5.05835C2.39063 4.59351 2.60938 4.25757 2.95703 3.90991C3.30859 3.55835 3.64063 3.34351 4.10547 3.16382C4.45703 3.0271 4.98828 2.86304 5.96094 2.82007C7.01172 2.77319 7.32813 2.76147 10 2.76147ZM10 0.960693C7.28516 0.960693 6.94531 0.972412 5.87891 1.01929C4.81641 1.06616 4.08594 1.23804 3.45313 1.48413C2.79297 1.74194 2.23438 2.08179 1.67969 2.64038C1.12109 3.19507 0.78125 3.75366 0.523438 4.40991C0.277344 5.04663 0.105469 5.77319 0.0585938 6.83569C0.0117188 7.90601 0 8.24585 0 10.9607C0 13.6755 0.0117188 14.0154 0.0585938 15.0818C0.105469 16.1443 0.277344 16.8748 0.523438 17.5076C0.78125 18.1677 1.12109 18.7263 1.67969 19.281C2.23438 19.8357 2.79297 20.1794 3.44922 20.4333C4.08594 20.6794 4.8125 20.8513 5.875 20.8982C6.94141 20.9451 7.28125 20.9568 9.99609 20.9568C12.7109 20.9568 13.0508 20.9451 14.1172 20.8982C15.1797 20.8513 15.9102 20.6794 16.543 20.4333C17.1992 20.1794 17.7578 19.8357 18.3125 19.281C18.8672 18.7263 19.2109 18.1677 19.4648 17.5115C19.7109 16.8748 19.8828 16.1482 19.9297 15.0857C19.9766 14.0193 19.9883 13.6794 19.9883 10.9646C19.9883 8.24976 19.9766 7.90991 19.9297 6.84351C19.8828 5.78101 19.7109 5.05054 19.4648 4.41772C19.2188 3.75366 18.8789 3.19507 18.3203 2.64038C17.7656 2.08569 17.207 1.74194 16.5508 1.48804C15.9141 1.24194 15.1875 1.07007 14.125 1.02319C13.0547 0.972412 12.7148 0.960693 10 0.960693Z" fill="white"/>
<path d="M10 5.82397C7.16406 5.82397 4.86328 8.12476 4.86328 10.9607C4.86328 13.7966 7.16406 16.0974 10 16.0974C12.8359 16.0974 15.1367 13.7966 15.1367 10.9607C15.1367 8.12476 12.8359 5.82397 10 5.82397ZM10 14.2927C8.16016 14.2927 6.66797 12.8005 6.66797 10.9607C6.66797 9.12085 8.16016 7.62866 10 7.62866C11.8398 7.62866 13.332 9.12085 13.332 10.9607C13.332 12.8005 11.8398 14.2927 10 14.2927Z" fill="white"/>
<path d="M16.5391 5.62085C16.5391 6.28491 16 6.82007 15.3398 6.82007C14.6758 6.82007 14.1406 6.28101 14.1406 5.62085C14.1406 4.95679 14.6797 4.42163 15.3398 4.42163C16 4.42163 16.5391 4.96069 16.5391 5.62085Z" fill="white"/>
</g>
<defs>
<clipPath id="clip0_963_5644">
<rect width="20" height="20" fill="white" transform="translate(0 0.960693)"/>
</clipPath>
</defs>
</svg>
