<svg width="20" height="21" viewBox="0 0 20 21" fill="none" xmlns="http://www.w3.org/2000/svg">
<g clip-path="url(#clip0_963_5645)">
<path d="M20 10.9607C20 5.43784 15.5229 0.960693 10 0.960693C4.47715 0.960693 0 5.43784 0 10.9607C0 15.9519 3.65684 20.089 8.4375 20.8392V13.8513H5.89844V10.9607H8.4375V8.75757C8.4375 6.25132 9.93047 4.86694 12.2146 4.86694C13.3084 4.86694 14.4531 5.06226 14.4531 5.06226V7.52319H13.1922C11.95 7.52319 11.5625 8.29409 11.5625 9.08569V10.9607H14.3359L13.8926 13.8513H11.5625V20.8392C16.3432 20.089 20 15.9519 20 10.9607Z" fill="white"/>
</g>
<defs>
<clipPath id="clip0_963_5645">
<rect width="20" height="20" fill="white" transform="translate(0 0.960693)"/>
</clipPath>
</defs>
</svg>
