<svg width="267" height="124" viewBox="0 0 267 124" fill="none" xmlns="http://www.w3.org/2000/svg">
<path d="M23.04 103.26C9.09 103.26 2.16 96.06 1.89 86.7H10.8C11.16 92.01 14.4 96.15 22.95 96.15C30.69 96.15 32.76 92.73 32.76 89.4C32.76 83.64 26.64 83.01 20.7 81.75C12.69 79.86 3.51 77.52 3.51 67.98C3.51 60.06 9.9 54.75 20.97 54.75C33.57 54.75 39.6 61.5 40.23 69.42H31.32C30.69 65.91 28.8 61.86 21.15 61.86C15.21 61.86 12.69 64.2 12.69 67.62C12.69 72.39 17.82 72.84 24.3 74.28C32.76 76.26 41.94 78.69 41.94 88.95C41.94 97.86 35.1 103.26 23.04 103.26ZM65.288 95.25C66.818 95.25 67.538 95.16 69.068 94.89V102C66.818 102.45 65.378 102.54 63.488 102.54C55.928 102.54 51.338 99.66 51.338 89.04V63.39H44.678V56.1H51.338V41.34H60.158V56.1H68.978V63.39H60.158V89.31C60.158 94.17 61.508 95.25 65.288 95.25ZM106.557 84.27V56.1H115.377V102H106.557V96.24H106.377C103.947 99.75 99.1772 103.26 91.2572 103.26C82.7972 103.26 75.9572 98.4 75.9572 87.87V56.1H84.7772V85.44C84.7772 91.65 87.4772 95.79 94.1372 95.79C101.697 95.79 106.557 91.2 106.557 84.27ZM157.852 61.68V37.65H166.672V102H157.852V96.6H157.672C155.152 99.84 150.742 103.26 143.542 103.26C131.842 103.26 122.932 94.17 122.932 79.05C122.932 63.93 131.842 54.75 143.542 54.75C150.742 54.75 155.152 58.08 157.672 61.68H157.852ZM144.982 95.97C152.902 95.97 157.762 89.4 157.762 79.05C157.762 68.61 152.902 62.13 144.982 62.13C136.342 62.13 132.112 70.05 132.112 79.05C132.112 88.05 136.342 95.97 144.982 95.97ZM186.05 47.91H176.06V38.37H186.05V47.91ZM185.42 102H176.6V56.1H185.42V102ZM215.841 103.35C201.531 103.35 192.891 93.45 192.891 79.05C192.891 64.74 201.531 54.66 215.931 54.66C230.151 54.66 238.791 64.65 238.791 78.96C238.791 93.36 230.151 103.35 215.841 103.35ZM215.931 96.06C225.291 96.06 229.611 88.59 229.611 79.05C229.611 69.42 225.291 62.04 215.931 62.04C206.391 62.04 202.071 69.42 202.071 79.05C202.071 88.59 206.391 96.06 215.931 96.06Z" fill="white"/>
<path d="M240.798 40H220.176C220.176 34.54 223.494 30.76 229.038 27.316C233.952 24.334 236.43 23.116 236.43 19.252C236.43 16.858 235.464 14.296 231.516 14.296C226.98 14.296 225.552 17.236 225.552 21.226H220.932C220.932 15.052 224.292 10.39 231.642 10.39C236.892 10.39 241.134 13.54 241.134 19.084C241.134 24.712 236.556 27.61 232.398 30.172C229.542 31.852 226.854 33.448 226.014 36.01V36.094H240.798V40ZM264.71 40H244.088C244.088 34.54 247.406 30.76 252.95 27.316C257.864 24.334 260.342 23.116 260.342 19.252C260.342 16.858 259.376 14.296 255.428 14.296C250.892 14.296 249.464 17.236 249.464 21.226H244.844C244.844 15.052 248.204 10.39 255.554 10.39C260.804 10.39 265.046 13.54 265.046 19.084C265.046 24.712 260.468 27.61 256.31 30.172C253.454 31.852 250.766 33.448 249.926 36.01V36.094H264.71V40Z" fill="white"/>
</svg>
